<?xml version="1.0" encoding="utf-8"?>
<!-- Generator: Adobe Illustrator 21.0.0, SVG Export Plug-In . SVG Version: 6.00 Build 0)  -->
<svg version="1.1" id="Layer_1" xmlns="http://www.w3.org/2000/svg" xmlns:xlink="http://www.w3.org/1999/xlink" x="0px" y="0px"
	 width="1346px" height="255px" viewBox="0 0 1346 255" style="enable-background:new 0 0 1346 255;" xml:space="preserve">
<style type="text/css">
	.st0{fill:#B9B9BA;}
	.st1{fill:#8A898A;}
	.st2{fill:#FA8A3B;}
	.st3{fill:#FFAF3E;}
	.st4{fill:#FFDA8A;}
	.st5{fill:#FFCF62;}
</style>
<polyline class="st0" points="753.9,253.7 753.9,152.6 747.2,119.8 753.9,87.4 753.9,47.7 740.4,47.7 740.4,253.7 "/>
<path class="st1" d="M646.6,46.2c-38.2,0-68.9,31.5-68.9,75.2c0,46.3,30.7,74.9,68.9,74.9c21.7,0,45.3-9.4,58.5-28l-9.6-8.3
	c-10.2,14.4-31,22.1-48.9,22.1c-28,0-52.5-19.8-55.2-54h122.2C718.8,71.2,684.8,46.2,646.6,46.2z M591.4,115.5
	c3-35.7,27.2-56,55.2-56c32.7,0,54.6,20,54.9,56H591.4z"/>
<rect x="413.2" y="47.6" class="st1" width="13.5" height="147.8"/>
<rect x="1072.3" y="47.6" class="st0" width="13.5" height="147.8"/>
<polygon class="st1" points="458,61.6 543,61.6 458,181.5 458,195.4 559.3,195.4 559.3,181.5 474.5,181.5 559.3,61.6 559.3,47.7 
	458,47.7 "/>
<path class="st1" d="M378.7,48.3c-28.3,0-53.3,14.6-67.8,36.7V47.6h-13.5v147.8h13.5v-70.7c2.5-35.3,31.9-63.3,67.8-63.3h8.4V48.3
	H378.7z"/>
<path class="st0" d="M1040.3,108.2L1040.3,108.2c0-0.1-6-61.6-69.6-61.6c-38.2,0-69.6,30.3-69.6,75.3c0,45,31.3,75.9,69.6,75.9
	c0.2,0,0.3,0,0.5,0c0.2,0,0.3,0,0.5,0c22.7,0,42.9-10.9,55.6-29.1c8.8-12.5,14-28.5,14-46.8C1041.4,117.1,1041,112.6,1040.3,108.2z
	 M970.8,183.4c-31,0-56-24.7-56-61.6c0-36.9,24.9-61.3,56-61.3c29.2,0,47.3,18.1,54.1,40.4c1.9,6.4,3,13.4,3,20.9
	c0,6.1-0.7,11.8-1.9,17.3C1020.1,163.2,1001.7,183.4,970.8,183.4z"/>
<path class="st0" d="M867.5,121.8c0-36.9-26.9-61.3-57.9-61.3c-76.2,0-75.8,122.9,0.4,122.9C841.1,183.4,867.5,158.8,867.5,121.8
	 M740.4,108.1c0,0,8.5-61.6,69.6-61.6c38.2,0,70.5,30.3,70.5,75.3c0,45-32.3,75.9-70.5,75.9c-22.2,0-42.7-10.7-56-33.6v31.3h-13.6
	V108.1"/>
<path class="st0" d="M1137.7,47.7v28c11.1-21.1,30.2-29.2,49.3-29.5c38.3,0,57.4,26.5,57.4,64.9v84.2h-13.3v-84.2
	c0-30.4-13.3-50.9-44.1-50.9c-28.8,0-48.8,23.8-48.8,54.5v80.6h-13.6V47.7H1137.7z"/>
<path class="st0" d="M1286,4v44.3h43.5v12.2H1286v89.6c0,19.9,3.9,33.9,25.2,33.9c6.7,0,14.1-2.4,21.1-6l4.7,11.9
	c-8.6,4.5-17.2,7.4-25.8,7.4c-29.1,0-38.5-18.5-38.5-47.3V4H1286z"/>
<g>
	<path class="st2" d="M71.5,118.7c22.8-11.4,41.3-30,52.8-52.8c3-5.9,5.5-12.1,7.4-18.6c2-6.4,3.4-13.1,4.2-20
		c0.6-4.6,0.8-9.2,0.9-13.9c0-0.1,0-1.9,0-1.9h-25v1.9c0-0.1,0,0.1,0,0c-0.1,51.2-41.8,92.8-93,92.8h-2v25h2
		c14.2,0,27.8-2.5,40.5-7.2C63.4,122.4,67.5,120.7,71.5,118.7"/>
	<path class="st3" d="M177,118.7c-22.8,11.4-41.3,30-52.8,52.8c-3,5.9-5.5,12.1-7.4,18.6c-2,6.4-3.4,13.1-4.2,20
		c-0.6,4.6-0.8,9.2-0.9,13.9c0,0.1,0,1.9,0,1.9h25v-1.9c0,0.1,0-0.1,0,0c0.1-51.2,41.8-92.8,93-92.8h2v-25h-2
		c-14.2,0-27.8,2.5-40.5,7.2C185.1,114.9,181,116.7,177,118.7"/>
	<path class="st4" d="M111.8,223.9v-72.1c-6-7.7-13-14.7-20.7-20.7H18.7C70,131.2,111.6,172.7,111.8,223.9"/>
	<path class="st5" d="M71.5,118.7c-4,2-8.1,3.8-12.3,5.3c-12.6,4.6-26.3,7.2-40.5,7.2h72.3C85,126.4,78.5,122.2,71.5,118.7
		C71.5,118.7,71.5,118.7,71.5,118.7"/>
	<path class="st5" d="M112.6,210c0.8-6.9,2.2-13.5,4.2-20c2-6.4,4.5-12.6,7.4-18.6c0,0,0,0,0,0c-3.5-7-7.7-13.5-12.5-19.6v72.1
		C111.8,219.2,112.1,214.6,112.6,210"/>
	<path class="st4" d="M136.8,13.4v72.1c6,7.7,13,14.7,20.7,20.7h72.2C178.5,106.1,136.9,64.5,136.8,13.4"/>
	<path class="st5" d="M135.9,27.3c-0.8,6.9-2.2,13.5-4.2,20c-2,6.4-4.5,12.6-7.4,18.6l0,0c3.5,7,7.7,13.5,12.5,19.6V13.4
		C136.7,18.1,136.4,22.8,135.9,27.3"/>
	<path class="st5" d="M177,118.7C177,118.7,177,118.7,177,118.7c4-2,8.1-3.8,12.3-5.3c12.6-4.6,26.2-7.2,40.4-7.2h-72.2
		C163.6,110.9,170.1,115.2,177,118.7"/>
</g>
</svg>
